<svg width="16" height="18" viewBox="0 0 16 18" fill="none" xmlns="http://www.w3.org/2000/svg">
<path d="M10.6524 12.7841V5.17503C10.6524 5.17503 11.5355 6.60502 14.7277 6.69237C14.8979 6.69701 15.0387 6.56096 15.0387 6.39555V4.24515C15.0387 4.08514 14.9075 3.95838 14.7428 3.9491C12.2667 3.81306 11.0908 1.96798 10.9754 0.27595C10.9651 0.119037 10.8234 0 10.6619 0H8.13733C7.96945 0 7.8326 0.132178 7.8326 0.296047V12.3922C7.8326 13.7063 6.79906 14.8495 5.44806 14.9114C3.90371 14.9825 2.64819 13.6947 2.83914 12.1727C2.9744 11.0975 3.86234 10.2171 4.96669 10.0679C5.18629 10.0386 5.40032 10.0362 5.60798 10.0587C5.79178 10.0787 5.95329 9.9458 5.95329 9.76647V7.61066C5.95329 7.45761 5.83315 7.32466 5.67561 7.31538C5.35895 7.29528 5.03432 7.30224 4.70493 7.33857C2.26946 7.60756 0.303425 9.52221 0.0337022 11.889C-0.321951 15.0111 2.18433 17.6538 5.32632 17.6538C8.26782 17.6538 10.6524 15.3373 10.6524 12.4796" fill="white"/>
</svg>
