<svg width="10" height="18" viewBox="0 0 10 18" fill="none" xmlns="http://www.w3.org/2000/svg">
<path d="M9.34105 7.78582L9.11687 9.58099C9.07895 9.88086 8.82429 10.1064 8.52222 10.1064H5.60653V17.612C5.29904 17.6397 4.98749 17.6538 4.67256 17.6538C3.96819 17.6538 3.28075 17.5836 2.61633 17.4499V10.1064H0.373859C0.167966 10.1064 0 9.93827 0 9.73227V7.48595C0 7.27996 0.167966 7.11179 0.373859 7.11179H2.61633V3.74297C2.61633 1.67563 4.2899 0 6.35492 0H8.97126C9.17715 0 9.34512 0.16817 9.34512 0.374162V2.62049C9.34512 2.82648 9.17715 2.99465 8.97126 2.99465H7.10196C6.27636 2.99465 5.60721 3.66463 5.60721 4.49197V7.11246H8.74708C9.10739 7.11246 9.38575 7.42854 9.34173 7.78649L9.34105 7.78582Z" fill="white"/>
</svg>
