<svg width="18" height="18" viewBox="0 0 18 18" fill="none" xmlns="http://www.w3.org/2000/svg">
<path d="M13.3926 0H4.26121C1.90827 0 0 1.90827 0 4.26121V13.3926C0 15.7456 1.90827 17.6538 4.26121 17.6538H13.3926C15.7456 17.6538 17.6538 15.7456 17.6538 13.3926V4.26121C17.6538 1.90827 15.7456 0 13.3926 0ZM16.1318 13.0877C16.1318 14.7681 14.7681 16.1318 13.0877 16.1318H4.56528C2.88485 16.1318 1.5212 14.7681 1.5212 13.0877V4.56528C1.5212 2.88485 2.88485 1.5212 4.56528 1.5212H13.0877C14.7681 1.5212 16.1318 2.88485 16.1318 4.56528V13.0877Z" fill="white"/>
<path d="M8.83553 4.26134C6.31573 4.26134 4.27025 6.30683 4.27025 8.82663C4.27025 11.3464 6.31573 13.3919 8.83553 13.3919C11.3553 13.3919 13.4008 11.3464 13.4008 8.82663C13.4008 6.30683 11.3553 4.26134 8.83553 4.26134ZM8.83553 11.8707C7.15849 11.8707 5.79145 10.5037 5.79145 8.82663C5.79145 7.14958 7.15849 5.78254 8.83553 5.78254C10.5126 5.78254 11.8796 7.14958 11.8796 8.82663C11.8796 10.5037 10.5126 11.8707 8.83553 11.8707Z" fill="white"/>
<path d="M13.7055 4.86998C14.2097 4.86998 14.6185 4.46119 14.6185 3.95692C14.6185 3.45266 14.2097 3.04387 13.7055 3.04387C13.2012 3.04387 12.7924 3.45266 12.7924 3.95692C12.7924 4.46119 13.2012 4.86998 13.7055 4.86998Z" fill="white"/>
</svg>
